<svg width="791" height="396" viewBox="0 0 791 396" fill="none" xmlns="http://www.w3.org/2000/svg">
<rect x="0.5" y="0.5" width="79" height="79" stroke="white"/>
<rect x="79.5" y="0.5" width="79" height="79" stroke="white"/>
<rect x="158.5" y="0.5" width="79" height="79" stroke="white"/>
<rect x="237.5" y="0.5" width="79" height="79" stroke="white"/>
<rect x="316.5" y="0.5" width="79" height="79" stroke="white"/>
<rect x="395.5" y="0.5" width="79" height="79" stroke="white"/>
<rect x="474.5" y="0.5" width="79" height="79" stroke="white"/>
<rect x="553.5" y="0.5" width="79" height="79" stroke="white"/>
<rect x="632.5" y="0.5" width="79" height="79" stroke="white"/>
<rect x="711.5" y="0.5" width="79" height="79" stroke="white"/>
<rect x="0.5" y="79.5" width="79" height="79" stroke="white"/>
<rect x="79.5" y="79.5" width="79" height="79" stroke="white"/>
<rect x="158.5" y="79.5" width="79" height="79" stroke="white"/>
<rect x="237.5" y="79.5" width="79" height="79" stroke="white"/>
<rect x="316.5" y="79.5" width="79" height="79" stroke="white"/>
<rect x="395.5" y="79.5" width="79" height="79" stroke="white"/>
<rect x="474.5" y="79.5" width="79" height="79" stroke="white"/>
<rect x="553.5" y="79.5" width="79" height="79" stroke="white"/>
<rect x="632.5" y="79.5" width="79" height="79" stroke="white"/>
<rect x="711.5" y="79.5" width="79" height="79" stroke="white"/>
<rect x="0.5" y="158.5" width="79" height="79" stroke="white"/>
<rect x="79.5" y="158.5" width="79" height="79" stroke="white"/>
<rect x="158.5" y="158.5" width="79" height="79" stroke="white"/>
<rect x="237.5" y="158.5" width="79" height="79" stroke="white"/>
<rect x="316.5" y="158.5" width="79" height="79" stroke="white"/>
<rect x="395.5" y="158.5" width="79" height="79" stroke="white"/>
<rect x="474.5" y="158.5" width="79" height="79" stroke="white"/>
<rect x="553.5" y="158.5" width="79" height="79" stroke="white"/>
<rect x="632.5" y="158.5" width="79" height="79" stroke="white"/>
<rect x="711.5" y="158.5" width="79" height="79" stroke="white"/>
<rect x="0.5" y="237.5" width="79" height="79" stroke="white"/>
<rect x="79.5" y="237.5" width="79" height="79" stroke="white"/>
<rect x="158.5" y="237.5" width="79" height="79" stroke="white"/>
<rect x="237.5" y="237.5" width="79" height="79" stroke="white"/>
<rect x="316.5" y="237.5" width="79" height="79" stroke="white"/>
<rect x="395.5" y="237.5" width="79" height="79" stroke="white"/>
<rect x="474.5" y="237.5" width="79" height="79" stroke="white"/>
<rect x="553.5" y="237.5" width="79" height="79" stroke="white"/>
<rect x="632.5" y="237.5" width="79" height="79" stroke="white"/>
<rect x="711.5" y="237.5" width="79" height="79" stroke="white"/>
<rect x="0.5" y="316.5" width="79" height="79" stroke="white"/>
<rect x="79.5" y="316.5" width="79" height="79" stroke="white"/>
<rect x="158.5" y="316.5" width="79" height="79" stroke="white"/>
<rect x="237.5" y="316.5" width="79" height="79" stroke="white"/>
<rect x="316.5" y="316.5" width="79" height="79" stroke="white"/>
<rect x="395.5" y="316.5" width="79" height="79" stroke="white"/>
<rect x="474.5" y="316.5" width="79" height="79" stroke="white"/>
<rect x="553.5" y="316.5" width="79" height="79" stroke="white"/>
<rect x="632.5" y="316.5" width="79" height="79" stroke="white"/>
<rect x="711.5" y="316.5" width="79" height="79" stroke="white"/>
</svg>
