<svg width="154" height="52" viewBox="0 0 154 52" fill="none" xmlns="http://www.w3.org/2000/svg">
<g filter="url(#filter0_d_164_863)">
<rect x="2" y="1" width="150" height="48" rx="8" fill="#105BCC"/>
<path d="M32.6705 19.3636V31H31.0568L25.142 22.4659H25.0341V31H23.2784V19.3636H24.9034L30.8239 27.9091H30.9318V19.3636H32.6705ZM38.8565 31.1761C37.9967 31.1761 37.2562 30.9924 36.6349 30.625C36.0175 30.2538 35.5402 29.733 35.2031 29.0625C34.8698 28.3883 34.7031 27.5985 34.7031 26.6932C34.7031 25.7992 34.8698 25.0114 35.2031 24.3295C35.5402 23.6477 36.0099 23.1155 36.6122 22.733C37.2183 22.3504 37.9266 22.1591 38.7372 22.1591C39.2296 22.1591 39.7069 22.2405 40.169 22.4034C40.6312 22.5663 41.0459 22.822 41.4134 23.1705C41.7808 23.5189 42.0705 23.9716 42.2827 24.5284C42.4948 25.0814 42.6009 25.7538 42.6009 26.5455V27.1477H35.6634V25.875H40.9361C40.9361 25.428 40.8452 25.0322 40.6634 24.6875C40.4815 24.339 40.2259 24.0644 39.8963 23.8636C39.5705 23.6629 39.188 23.5625 38.7486 23.5625C38.2713 23.5625 37.8546 23.6799 37.4986 23.9148C37.1463 24.1458 36.8736 24.4489 36.6804 24.8239C36.491 25.1951 36.3963 25.5985 36.3963 26.0341V27.0284C36.3963 27.6117 36.4986 28.108 36.7031 28.517C36.9115 28.9261 37.2012 29.2386 37.5724 29.4545C37.9437 29.6667 38.3774 29.7727 38.8736 29.7727C39.1955 29.7727 39.4891 29.7273 39.7543 29.6364C40.0194 29.5417 40.2486 29.4015 40.4418 29.2159C40.6349 29.0303 40.7827 28.8011 40.8849 28.5284L42.4929 28.8182C42.3641 29.2917 42.133 29.7064 41.7997 30.0625C41.4702 30.4148 41.0554 30.6894 40.5554 30.8864C40.0592 31.0795 39.4929 31.1761 38.8565 31.1761ZM45.6236 22.2727L47.5497 25.6705L49.4929 22.2727H51.3509L48.6293 26.6364L51.3736 31H49.5156L47.5497 27.7386L45.5895 31H43.7259L46.4418 26.6364L43.7599 22.2727H45.6236ZM57.169 22.2727V23.6364H52.402V22.2727H57.169ZM53.6804 20.1818H55.3793V28.4375C55.3793 28.767 55.4285 29.0152 55.527 29.1818C55.6255 29.3447 55.7524 29.4564 55.9077 29.517C56.0668 29.5739 56.2391 29.6023 56.4247 29.6023C56.5611 29.6023 56.6804 29.5928 56.7827 29.5739C56.8849 29.5549 56.9645 29.5398 57.0213 29.5284L57.3281 30.9318C57.2296 30.9697 57.0895 31.0076 56.9077 31.0455C56.7259 31.0871 56.4986 31.1098 56.2259 31.1136C55.7789 31.1212 55.3622 31.0417 54.9759 30.875C54.5895 30.7083 54.277 30.4508 54.0384 30.1023C53.7997 29.7538 53.6804 29.3163 53.6804 28.7898V20.1818ZM67.6974 27.2273H69.4247L70.6406 28.8125L71.2145 29.517L73.152 32.0455H71.3565L70.0611 30.358L69.6179 29.7443L67.6974 27.2273ZM73.527 25.1818C73.527 26.4242 73.2997 27.4924 72.8452 28.3864C72.3906 29.2765 71.7675 29.9621 70.9759 30.4432C70.188 30.9205 69.2921 31.1591 68.2884 31.1591C67.2808 31.1591 66.3812 30.9205 65.5895 30.4432C64.8016 29.9621 64.1804 29.2746 63.7259 28.3807C63.2713 27.4867 63.044 26.4205 63.044 25.1818C63.044 23.9394 63.2713 22.8731 63.7259 21.983C64.1804 21.089 64.8016 20.4034 65.5895 19.9261C66.3812 19.4451 67.2808 19.2045 68.2884 19.2045C69.2921 19.2045 70.188 19.4451 70.9759 19.9261C71.7675 20.4034 72.3906 21.089 72.8452 21.983C73.2997 22.8731 73.527 23.9394 73.527 25.1818ZM71.7884 25.1818C71.7884 24.2348 71.6349 23.4375 71.3281 22.7898C71.0251 22.1383 70.6084 21.6458 70.0781 21.3125C69.5516 20.9754 68.955 20.8068 68.2884 20.8068C67.6179 20.8068 67.0194 20.9754 66.4929 21.3125C65.9664 21.6458 65.5497 22.1383 65.2429 22.7898C64.9399 23.4375 64.7884 24.2348 64.7884 25.1818C64.7884 26.1288 64.9399 26.928 65.2429 27.5795C65.5497 28.2273 65.9664 28.7197 66.4929 29.0568C67.0194 29.3902 67.6179 29.5568 68.2884 29.5568C68.955 29.5568 69.5516 29.3902 70.0781 29.0568C70.6084 28.7197 71.0251 28.2273 71.3281 27.5795C71.6349 26.928 71.7884 26.1288 71.7884 25.1818ZM81.108 27.3807V22.2727H82.8125V31H81.142V29.4886H81.0511C80.8504 29.9545 80.5284 30.3428 80.0852 30.6534C79.6458 30.9602 79.0985 31.1136 78.4432 31.1136C77.8826 31.1136 77.3864 30.9905 76.9545 30.7443C76.5265 30.4943 76.1894 30.125 75.9432 29.6364C75.7008 29.1477 75.5795 28.5436 75.5795 27.8239V22.2727H77.2784V27.6193C77.2784 28.214 77.4432 28.6875 77.7727 29.0398C78.1023 29.392 78.5303 29.5682 79.0568 29.5682C79.375 29.5682 79.6913 29.4886 80.0057 29.3295C80.3239 29.1705 80.5871 28.9299 80.7955 28.608C81.0076 28.286 81.1117 27.8769 81.108 27.3807ZM88.8565 31.1761C87.9967 31.1761 87.2562 30.9924 86.6349 30.625C86.0175 30.2538 85.5402 29.733 85.2031 29.0625C84.8698 28.3883 84.7031 27.5985 84.7031 26.6932C84.7031 25.7992 84.8698 25.0114 85.2031 24.3295C85.5402 23.6477 86.0099 23.1155 86.6122 22.733C87.2183 22.3504 87.9266 22.1591 88.7372 22.1591C89.2296 22.1591 89.7069 22.2405 90.169 22.4034C90.6312 22.5663 91.0459 22.822 91.4134 23.1705C91.7808 23.5189 92.0705 23.9716 92.2827 24.5284C92.4948 25.0814 92.6009 25.7538 92.6009 26.5455V27.1477H85.6634V25.875H90.9361C90.9361 25.428 90.8452 25.0322 90.6634 24.6875C90.4815 24.339 90.2259 24.0644 89.8963 23.8636C89.5705 23.6629 89.188 23.5625 88.7486 23.5625C88.2713 23.5625 87.8546 23.6799 87.4986 23.9148C87.1463 24.1458 86.8736 24.4489 86.6804 24.8239C86.491 25.1951 86.3963 25.5985 86.3963 26.0341V27.0284C86.3963 27.6117 86.4986 28.108 86.7031 28.517C86.9115 28.9261 87.2012 29.2386 87.5724 29.4545C87.9437 29.6667 88.3774 29.7727 88.8736 29.7727C89.1955 29.7727 89.4891 29.7273 89.7543 29.6364C90.0194 29.5417 90.2486 29.4015 90.4418 29.2159C90.6349 29.0303 90.7827 28.8011 90.8849 28.5284L92.4929 28.8182C92.3641 29.2917 92.133 29.7064 91.7997 30.0625C91.4702 30.4148 91.0554 30.6894 90.5554 30.8864C90.0592 31.0795 89.4929 31.1761 88.8565 31.1761ZM101.026 24.4034L99.4858 24.6761C99.4214 24.4792 99.3191 24.2917 99.179 24.1136C99.0426 23.9356 98.857 23.7898 98.6222 23.6761C98.3873 23.5625 98.0938 23.5057 97.7415 23.5057C97.2604 23.5057 96.8589 23.6136 96.5369 23.8295C96.215 24.0417 96.054 24.3163 96.054 24.6534C96.054 24.9451 96.1619 25.1799 96.3778 25.358C96.5938 25.536 96.9422 25.6818 97.4233 25.7955L98.8097 26.1136C99.6127 26.2992 100.211 26.5852 100.605 26.9716C100.999 27.358 101.196 27.8598 101.196 28.4773C101.196 29 101.045 29.4659 100.741 29.875C100.442 30.2803 100.024 30.5985 99.4858 30.8295C98.9517 31.0606 98.3324 31.1761 97.6278 31.1761C96.6506 31.1761 95.8532 30.9678 95.2358 30.5511C94.6184 30.1307 94.2396 29.5341 94.0994 28.7614L95.7415 28.5114C95.8438 28.9394 96.054 29.2633 96.3722 29.483C96.6903 29.6989 97.1051 29.8068 97.6165 29.8068C98.1733 29.8068 98.6184 29.6913 98.9517 29.4602C99.285 29.2254 99.4517 28.9394 99.4517 28.6023C99.4517 28.3295 99.3494 28.1004 99.1449 27.9148C98.9441 27.7292 98.6354 27.589 98.2188 27.4943L96.7415 27.1705C95.9271 26.9848 95.3248 26.6894 94.9347 26.2841C94.5483 25.8788 94.3551 25.3655 94.3551 24.7443C94.3551 24.2292 94.4991 23.7784 94.7869 23.392C95.0748 23.0057 95.4725 22.7045 95.9801 22.4886C96.4877 22.2689 97.0691 22.1591 97.7244 22.1591C98.6676 22.1591 99.41 22.3636 99.9517 22.7727C100.493 23.178 100.851 23.7216 101.026 24.4034ZM107.138 22.2727V23.6364H102.371V22.2727H107.138ZM103.649 20.1818H105.348V28.4375C105.348 28.767 105.397 29.0152 105.496 29.1818C105.594 29.3447 105.721 29.4564 105.876 29.517C106.036 29.5739 106.208 29.6023 106.393 29.6023C106.53 29.6023 106.649 29.5928 106.751 29.5739C106.854 29.5549 106.933 29.5398 106.99 29.5284L107.297 30.9318C107.198 30.9697 107.058 31.0076 106.876 31.0455C106.695 31.0871 106.467 31.1098 106.195 31.1136C105.748 31.1212 105.331 31.0417 104.945 30.875C104.558 30.7083 104.246 30.4508 104.007 30.1023C103.768 29.7538 103.649 29.3163 103.649 28.7898V20.1818ZM109.017 31V22.2727H110.716V31H109.017ZM109.875 20.9261C109.58 20.9261 109.326 20.8277 109.114 20.6307C108.905 20.4299 108.801 20.1913 108.801 19.9148C108.801 19.6345 108.905 19.3958 109.114 19.1989C109.326 18.9981 109.58 18.8977 109.875 18.8977C110.17 18.8977 110.422 18.9981 110.631 19.1989C110.843 19.3958 110.949 19.6345 110.949 19.9148C110.949 20.1913 110.843 20.4299 110.631 20.6307C110.422 20.8277 110.17 20.9261 109.875 20.9261ZM116.678 31.1761C115.859 31.1761 115.145 30.9886 114.536 30.6136C113.926 30.2386 113.452 29.714 113.115 29.0398C112.778 28.3655 112.609 27.5777 112.609 26.6761C112.609 25.7708 112.778 24.9792 113.115 24.3011C113.452 23.6231 113.926 23.0966 114.536 22.7216C115.145 22.3466 115.859 22.1591 116.678 22.1591C117.496 22.1591 118.21 22.3466 118.82 22.7216C119.429 23.0966 119.903 23.6231 120.24 24.3011C120.577 24.9792 120.746 25.7708 120.746 26.6761C120.746 27.5777 120.577 28.3655 120.24 29.0398C119.903 29.714 119.429 30.2386 118.82 30.6136C118.21 30.9886 117.496 31.1761 116.678 31.1761ZM116.683 29.75C117.214 29.75 117.653 29.6098 118.001 29.3295C118.35 29.0492 118.607 28.6761 118.774 28.2102C118.945 27.7443 119.03 27.2311 119.03 26.6705C119.03 26.1136 118.945 25.6023 118.774 25.1364C118.607 24.6667 118.35 24.2898 118.001 24.0057C117.653 23.7216 117.214 23.5795 116.683 23.5795C116.149 23.5795 115.706 23.7216 115.354 24.0057C115.005 24.2898 114.746 24.6667 114.575 25.1364C114.409 25.6023 114.325 26.1136 114.325 26.6705C114.325 27.2311 114.409 27.7443 114.575 28.2102C114.746 28.6761 115.005 29.0492 115.354 29.3295C115.706 29.6098 116.149 29.75 116.683 29.75ZM124.341 25.8182V31H122.642V22.2727H124.273V23.6932H124.381C124.581 23.2311 124.896 22.8598 125.324 22.5795C125.756 22.2992 126.299 22.1591 126.955 22.1591C127.549 22.1591 128.07 22.2841 128.517 22.5341C128.964 22.7803 129.311 23.1477 129.557 23.6364C129.803 24.125 129.926 24.7292 129.926 25.4489V31H128.227V25.6534C128.227 25.0208 128.063 24.5265 127.733 24.1705C127.403 23.8106 126.951 23.6307 126.375 23.6307C125.981 23.6307 125.631 23.7159 125.324 23.8864C125.021 24.0568 124.78 24.3068 124.602 24.6364C124.428 24.9621 124.341 25.3561 124.341 25.8182Z" fill="white"/>
<rect x="2.5" y="1.5" width="149" height="47" rx="7.5" stroke="#105BCC"/>
</g>
<defs>
<filter id="filter0_d_164_863" x="0" y="0" width="154" height="52" filterUnits="userSpaceOnUse" color-interpolation-filters="sRGB">
<feFlood flood-opacity="0" result="BackgroundImageFix"/>
<feColorMatrix in="SourceAlpha" type="matrix" values="0 0 0 0 0 0 0 0 0 0 0 0 0 0 0 0 0 0 127 0" result="hardAlpha"/>
<feOffset dy="1"/>
<feGaussianBlur stdDeviation="1"/>
<feColorMatrix type="matrix" values="0 0 0 0 0.0627451 0 0 0 0 0.0941176 0 0 0 0 0.156863 0 0 0 0.05 0"/>
<feBlend mode="normal" in2="BackgroundImageFix" result="effect1_dropShadow_164_863"/>
<feBlend mode="normal" in="SourceGraphic" in2="effect1_dropShadow_164_863" result="shape"/>
</filter>
</defs>
</svg>
