<svg xmlns="http://www.w3.org/2000/svg" width="151" height="52" viewBox="0 0 151 52" fill="none">
<g filter="url(#filter0_d_301_503)">
<rect x="2" y="1" width="147" height="48" rx="8" fill="#F2F2F2"/>
<path d="M29.625 22.4205C29.5644 21.8826 29.3144 21.4659 28.875 21.1705C28.4356 20.8712 27.8826 20.7216 27.2159 20.7216C26.7386 20.7216 26.3258 20.7973 25.9773 20.9489C25.6288 21.0966 25.358 21.3011 25.1648 21.5625C24.9754 21.8201 24.8807 22.1136 24.8807 22.4432C24.8807 22.7197 24.9451 22.9583 25.0739 23.1591C25.2064 23.3598 25.3788 23.5284 25.5909 23.6648C25.8068 23.7973 26.0379 23.9091 26.2841 24C26.5303 24.0871 26.767 24.1591 26.9943 24.2159L28.1307 24.5114C28.5019 24.6023 28.8826 24.7254 29.2727 24.8807C29.6629 25.036 30.0246 25.2405 30.358 25.4943C30.6913 25.7481 30.9602 26.0625 31.1648 26.4375C31.3731 26.8125 31.4773 27.2614 31.4773 27.7841C31.4773 28.4432 31.3068 29.0284 30.9659 29.5398C30.6288 30.0511 30.1383 30.4545 29.4943 30.75C28.8542 31.0455 28.0795 31.1932 27.1705 31.1932C26.2992 31.1932 25.5455 31.0549 24.9091 30.7784C24.2727 30.5019 23.7746 30.1098 23.4148 29.6023C23.0549 29.0909 22.8561 28.4848 22.8182 27.7841H24.5795C24.6136 28.2045 24.75 28.5549 24.9886 28.8352C25.2311 29.1117 25.5398 29.3182 25.9148 29.4545C26.2936 29.5871 26.7083 29.6534 27.1591 29.6534C27.6553 29.6534 28.0966 29.5758 28.483 29.4205C28.8731 29.2614 29.1799 29.0417 29.4034 28.7614C29.6269 28.4773 29.7386 28.1458 29.7386 27.767C29.7386 27.4223 29.6402 27.1402 29.4432 26.9205C29.25 26.7008 28.9867 26.5189 28.6534 26.375C28.3239 26.2311 27.9508 26.1042 27.5341 25.9943L26.1591 25.6193C25.2273 25.3655 24.4886 24.9924 23.9432 24.5C23.4015 24.0076 23.1307 23.3561 23.1307 22.5455C23.1307 21.875 23.3125 21.2898 23.6761 20.7898C24.0398 20.2898 24.5322 19.9015 25.1534 19.625C25.7746 19.3447 26.4754 19.2045 27.2557 19.2045C28.0436 19.2045 28.7386 19.3428 29.3409 19.6193C29.947 19.8958 30.4242 20.2765 30.7727 20.7614C31.1212 21.2424 31.303 21.7955 31.3182 22.4205H29.625ZM35.0014 28.0398L34.9901 25.9659H35.2855L38.7628 22.2727H40.7969L36.831 26.4773H36.5639L35.0014 28.0398ZM33.4389 31V19.3636H35.1378V31H33.4389ZM38.9503 31L35.8253 26.8523L36.9957 25.6648L41.0355 31H38.9503ZM42.3452 31V22.2727H44.044V31H42.3452ZM43.2031 20.9261C42.9077 20.9261 42.6539 20.8277 42.4418 20.6307C42.2334 20.4299 42.1293 20.1913 42.1293 19.9148C42.1293 19.6345 42.2334 19.3958 42.4418 19.1989C42.6539 18.9981 42.9077 18.8977 43.2031 18.8977C43.4986 18.8977 43.7505 18.9981 43.9588 19.1989C44.1709 19.3958 44.277 19.6345 44.277 19.9148C44.277 20.1913 44.1709 20.4299 43.9588 20.6307C43.7505 20.8277 43.4986 20.9261 43.2031 20.9261ZM46.3295 34.2727V22.2727H47.9886V23.6875H48.1307C48.2292 23.5057 48.3712 23.2955 48.5568 23.0568C48.7424 22.8182 49 22.6098 49.3295 22.4318C49.6591 22.25 50.0947 22.1591 50.6364 22.1591C51.3409 22.1591 51.9697 22.3371 52.5227 22.6932C53.0758 23.0492 53.5095 23.5625 53.8239 24.233C54.142 24.9034 54.3011 25.7102 54.3011 26.6534C54.3011 27.5966 54.1439 28.4053 53.8295 29.0795C53.5152 29.75 53.0833 30.267 52.5341 30.6307C51.9848 30.9905 51.358 31.1705 50.6534 31.1705C50.1231 31.1705 49.6894 31.0814 49.3523 30.9034C49.0189 30.7254 48.7576 30.517 48.5682 30.2784C48.3788 30.0398 48.233 29.8277 48.1307 29.642H48.0284V34.2727H46.3295ZM47.9943 26.6364C47.9943 27.25 48.0833 27.7879 48.2614 28.25C48.4394 28.7121 48.697 29.0739 49.0341 29.3352C49.3712 29.5928 49.7841 29.7216 50.2727 29.7216C50.7803 29.7216 51.2045 29.5871 51.5455 29.3182C51.8864 29.0455 52.1439 28.6761 52.3182 28.2102C52.4962 27.7443 52.5852 27.2197 52.5852 26.6364C52.5852 26.0606 52.4981 25.5436 52.3239 25.0852C52.1534 24.6269 51.8958 24.2652 51.5511 24C51.2102 23.7348 50.7841 23.6023 50.2727 23.6023C49.7803 23.6023 49.3636 23.7292 49.0227 23.983C48.6856 24.2367 48.4299 24.5909 48.2557 25.0455C48.0814 25.5 47.9943 26.0303 47.9943 26.6364ZM64.8537 27.2273H66.581L67.7969 28.8125L68.3707 29.517L70.3082 32.0455H68.5128L67.2173 30.358L66.7741 29.7443L64.8537 27.2273ZM70.6832 25.1818C70.6832 26.4242 70.456 27.4924 70.0014 28.3864C69.5469 29.2765 68.9238 29.9621 68.1321 30.4432C67.3442 30.9205 66.4484 31.1591 65.4446 31.1591C64.437 31.1591 63.5374 30.9205 62.7457 30.4432C61.9579 29.9621 61.3366 29.2746 60.8821 28.3807C60.4276 27.4867 60.2003 26.4205 60.2003 25.1818C60.2003 23.9394 60.4276 22.8731 60.8821 21.983C61.3366 21.089 61.9579 20.4034 62.7457 19.9261C63.5374 19.4451 64.437 19.2045 65.4446 19.2045C66.4484 19.2045 67.3442 19.4451 68.1321 19.9261C68.9238 20.4034 69.5469 21.089 70.0014 21.983C70.456 22.8731 70.6832 23.9394 70.6832 25.1818ZM68.9446 25.1818C68.9446 24.2348 68.7912 23.4375 68.4844 22.7898C68.1813 22.1383 67.7647 21.6458 67.2344 21.3125C66.7079 20.9754 66.1113 20.8068 65.4446 20.8068C64.7741 20.8068 64.1757 20.9754 63.6491 21.3125C63.1226 21.6458 62.706 22.1383 62.3991 22.7898C62.0961 23.4375 61.9446 24.2348 61.9446 25.1818C61.9446 26.1288 62.0961 26.928 62.3991 27.5795C62.706 28.2273 63.1226 28.7197 63.6491 29.0568C64.1757 29.3902 64.7741 29.5568 65.4446 29.5568C66.1113 29.5568 66.7079 29.3902 67.2344 29.0568C67.7647 28.7197 68.1813 28.2273 68.4844 27.5795C68.7912 26.928 68.9446 26.1288 68.9446 25.1818ZM78.2642 27.3807V22.2727H79.9688V31H78.2983V29.4886H78.2074C78.0066 29.9545 77.6847 30.3428 77.2415 30.6534C76.8021 30.9602 76.2547 31.1136 75.5994 31.1136C75.0388 31.1136 74.5426 30.9905 74.1108 30.7443C73.6828 30.4943 73.3456 30.125 73.0994 29.6364C72.857 29.1477 72.7358 28.5436 72.7358 27.8239V22.2727H74.4347V27.6193C74.4347 28.214 74.5994 28.6875 74.929 29.0398C75.2585 29.392 75.6866 29.5682 76.2131 29.5682C76.5313 29.5682 76.8475 29.4886 77.1619 29.3295C77.4801 29.1705 77.7434 28.9299 77.9517 28.608C78.1638 28.286 78.268 27.8769 78.2642 27.3807ZM86.0128 31.1761C85.1529 31.1761 84.4124 30.9924 83.7912 30.625C83.1738 30.2538 82.6965 29.733 82.3594 29.0625C82.026 28.3883 81.8594 27.5985 81.8594 26.6932C81.8594 25.7992 82.026 25.0114 82.3594 24.3295C82.6965 23.6477 83.1662 23.1155 83.7685 22.733C84.3745 22.3504 85.0829 22.1591 85.8935 22.1591C86.3859 22.1591 86.8632 22.2405 87.3253 22.4034C87.7874 22.5663 88.2022 22.822 88.5696 23.1705C88.937 23.5189 89.2268 23.9716 89.4389 24.5284C89.651 25.0814 89.7571 25.7538 89.7571 26.5455V27.1477H82.8196V25.875H88.0923C88.0923 25.428 88.0014 25.0322 87.8196 24.6875C87.6378 24.339 87.3821 24.0644 87.0526 23.8636C86.7268 23.6629 86.3442 23.5625 85.9048 23.5625C85.4276 23.5625 85.0109 23.6799 84.6548 23.9148C84.3026 24.1458 84.0298 24.4489 83.8366 24.8239C83.6473 25.1951 83.5526 25.5985 83.5526 26.0341V27.0284C83.5526 27.6117 83.6548 28.108 83.8594 28.517C84.0677 28.9261 84.3575 29.2386 84.7287 29.4545C85.0999 29.6667 85.5336 29.7727 86.0298 29.7727C86.3518 29.7727 86.6454 29.7273 86.9105 29.6364C87.1757 29.5417 87.4048 29.4015 87.598 29.2159C87.7912 29.0303 87.9389 28.8011 88.0412 28.5284L89.6491 28.8182C89.5204 29.2917 89.2893 29.7064 88.956 30.0625C88.6264 30.4148 88.2116 30.6894 87.7116 30.8864C87.2154 31.0795 86.6491 31.1761 86.0128 31.1761ZM98.1818 24.4034L96.642 24.6761C96.5777 24.4792 96.4754 24.2917 96.3352 24.1136C96.1989 23.9356 96.0133 23.7898 95.7784 23.6761C95.5436 23.5625 95.25 23.5057 94.8977 23.5057C94.4167 23.5057 94.0152 23.6136 93.6932 23.8295C93.3712 24.0417 93.2102 24.3163 93.2102 24.6534C93.2102 24.9451 93.3182 25.1799 93.5341 25.358C93.75 25.536 94.0985 25.6818 94.5795 25.7955L95.9659 26.1136C96.7689 26.2992 97.3674 26.5852 97.7614 26.9716C98.1553 27.358 98.3523 27.8598 98.3523 28.4773C98.3523 29 98.2008 29.4659 97.8977 29.875C97.5985 30.2803 97.1799 30.5985 96.642 30.8295C96.108 31.0606 95.4886 31.1761 94.7841 31.1761C93.8068 31.1761 93.0095 30.9678 92.392 30.5511C91.7746 30.1307 91.3958 29.5341 91.2557 28.7614L92.8977 28.5114C93 28.9394 93.2102 29.2633 93.5284 29.483C93.8466 29.6989 94.2614 29.8068 94.7727 29.8068C95.3295 29.8068 95.7746 29.6913 96.108 29.4602C96.4413 29.2254 96.608 28.9394 96.608 28.6023C96.608 28.3295 96.5057 28.1004 96.3011 27.9148C96.1004 27.7292 95.7917 27.589 95.375 27.4943L93.8977 27.1705C93.0833 26.9848 92.4811 26.6894 92.0909 26.2841C91.7045 25.8788 91.5114 25.3655 91.5114 24.7443C91.5114 24.2292 91.6553 23.7784 91.9432 23.392C92.2311 23.0057 92.6288 22.7045 93.1364 22.4886C93.6439 22.2689 94.2254 22.1591 94.8807 22.1591C95.8239 22.1591 96.5663 22.3636 97.108 22.7727C97.6496 23.178 98.0076 23.7216 98.1818 24.4034ZM104.294 22.2727V23.6364H99.527V22.2727H104.294ZM100.805 20.1818H102.504V28.4375C102.504 28.767 102.554 29.0152 102.652 29.1818C102.75 29.3447 102.877 29.4564 103.033 29.517C103.192 29.5739 103.364 29.6023 103.55 29.6023C103.686 29.6023 103.805 29.5928 103.908 29.5739C104.01 29.5549 104.089 29.5398 104.146 29.5284L104.453 30.9318C104.355 30.9697 104.214 31.0076 104.033 31.0455C103.851 31.0871 103.624 31.1098 103.351 31.1136C102.904 31.1212 102.487 31.0417 102.101 30.875C101.714 30.7083 101.402 30.4508 101.163 30.1023C100.925 29.7538 100.805 29.3163 100.805 28.7898V20.1818ZM106.173 31V22.2727H107.872V31H106.173ZM107.031 20.9261C106.736 20.9261 106.482 20.8277 106.27 20.6307C106.062 20.4299 105.957 20.1913 105.957 19.9148C105.957 19.6345 106.062 19.3958 106.27 19.1989C106.482 18.9981 106.736 18.8977 107.031 18.8977C107.327 18.8977 107.579 18.9981 107.787 19.1989C107.999 19.3958 108.105 19.6345 108.105 19.9148C108.105 20.1913 107.999 20.4299 107.787 20.6307C107.579 20.8277 107.327 20.9261 107.031 20.9261ZM113.834 31.1761C113.016 31.1761 112.302 30.9886 111.692 30.6136C111.082 30.2386 110.608 29.714 110.271 29.0398C109.934 28.3655 109.766 27.5777 109.766 26.6761C109.766 25.7708 109.934 24.9792 110.271 24.3011C110.608 23.6231 111.082 23.0966 111.692 22.7216C112.302 22.3466 113.016 22.1591 113.834 22.1591C114.652 22.1591 115.366 22.3466 115.976 22.7216C116.586 23.0966 117.059 23.6231 117.396 24.3011C117.733 24.9792 117.902 25.7708 117.902 26.6761C117.902 27.5777 117.733 28.3655 117.396 29.0398C117.059 29.714 116.586 30.2386 115.976 30.6136C115.366 30.9886 114.652 31.1761 113.834 31.1761ZM113.839 29.75C114.37 29.75 114.809 29.6098 115.158 29.3295C115.506 29.0492 115.764 28.6761 115.93 28.2102C116.101 27.7443 116.186 27.2311 116.186 26.6705C116.186 26.1136 116.101 25.6023 115.93 25.1364C115.764 24.6667 115.506 24.2898 115.158 24.0057C114.809 23.7216 114.37 23.5795 113.839 23.5795C113.305 23.5795 112.862 23.7216 112.51 24.0057C112.161 24.2898 111.902 24.6667 111.732 25.1364C111.565 25.6023 111.482 26.1136 111.482 26.6705C111.482 27.2311 111.565 27.7443 111.732 28.2102C111.902 28.6761 112.161 29.0492 112.51 29.3295C112.862 29.6098 113.305 29.75 113.839 29.75ZM121.497 25.8182V31H119.798V22.2727H121.429V23.6932H121.537C121.738 23.2311 122.052 22.8598 122.48 22.5795C122.912 22.2992 123.455 22.1591 124.111 22.1591C124.705 22.1591 125.226 22.2841 125.673 22.5341C126.12 22.7803 126.467 23.1477 126.713 23.6364C126.959 24.125 127.082 24.7292 127.082 25.4489V31H125.384V25.6534C125.384 25.0208 125.219 24.5265 124.889 24.1705C124.56 23.8106 124.107 23.6307 123.531 23.6307C123.137 23.6307 122.787 23.7159 122.48 23.8864C122.177 24.0568 121.937 24.3068 121.759 24.6364C121.584 24.9621 121.497 25.3561 121.497 25.8182Z" fill="#105BCC"/>
<rect x="2.5" y="1.5" width="146" height="47" rx="7.5" stroke="#105BCC"/>
</g>
<defs>
<filter id="filter0_d_301_503" x="0" y="0" width="151" height="52" filterUnits="userSpaceOnUse" color-interpolation-filters="sRGB">
<feFlood flood-opacity="0" result="BackgroundImageFix"/>
<feColorMatrix in="SourceAlpha" type="matrix" values="0 0 0 0 0 0 0 0 0 0 0 0 0 0 0 0 0 0 127 0" result="hardAlpha"/>
<feOffset dy="1"/>
<feGaussianBlur stdDeviation="1"/>
<feColorMatrix type="matrix" values="0 0 0 0 0.0627451 0 0 0 0 0.0941176 0 0 0 0 0.156863 0 0 0 0.05 0"/>
<feBlend mode="normal" in2="BackgroundImageFix" result="effect1_dropShadow_301_503"/>
<feBlend mode="normal" in="SourceGraphic" in2="effect1_dropShadow_301_503" result="shape"/>
</filter>
</defs>
</svg>